# AST/ASF file generated using VICON BodyLanguage
# -----------------------------------------------
:version 1.10
:name VICON
:units
  mass 1.0
  length 0.45
  angle deg
:documentation
   .ast/.asf automatically generated from VICON data using
   VICON BodyBuilder and BodyLanguage model FoxedUp or BRILLIANT.MOD
:root
   order TX TY TZ RX RY RZ
   axis XYZ
   position 0 0 0  
   orientation 0 0 0 
:bonedata
  begin
     id 1 
     name lhipjoint
     direction 0.567725 -0.736092 0.368589 
     length 2.42353 
     axis 0 0 0  XYZ
  end
  begin
     id 2 
     name lfemur
     direction 0.34202 -0.939693 0  
     length 7.24894  
     axis 0 0 20  XYZ
    dof rx ry rz
    limits (-160.0 20.0)
           (-70.0 70.0)
           (-60.0 70.0)
  end
  begin
     id 3 
     name ltibia
     direction 0.34202 -0.939693 0   
     length 7.6997   
     axis 0 0 20   XYZ
    dof rx
    limits (-10.0 170.0)
  end
  begin
     id 4 
     name lfoot
     direction 0.100767 -0.276854 0.955614   
     length 2.37556   
     axis -90 7.62852e-016 20   XYZ
    dof rx rz
    limits (-45.0 90.0)
           (-70.0 20.0)
  end
  begin
     id 5 
     name ltoes
     direction 1.53592e-011 -4.21894e-011 1   
     length 1.18363   
     axis -90 7.62852e-016 20   XYZ
    dof rx
    limits (-90.0 20.0)
  end
  begin
     id 6 
     name rhipjoint
     direction -0.556459 -0.742938 0.372017   
     length 2.4012  
     axis 0 0 0  XYZ 
  end
  begin
     id 7 
     name rfemur
     direction -0.34202 -0.939693 0   
     length 7.5119   
     axis 0 0 -20   XYZ
    dof rx ry rz
    limits (-160.0 20.0)
           (-70.0 70.0)
           (-70.0 60.0)
  end
  begin
     id 8 
     name rtibia
     direction -0.34202 -0.939693 0   
     length 7.50155   
     axis 0 0 -20   XYZ
    dof rx
    limits (-10.0 170.0)
 end
 begin
     id 9 
     name rfoot
     direction -0.118427 -0.325376 0.938139   
     length 2.32487  
     axis -90 -7.62852e-016 -20   XYZ
    dof rx rz
    limits (-45.0 90.0)
           (-20.0 70.0)
  end
  begin
     id 10 
     name rtoes
     direction -1.53525e-011 -4.21868e-011 1   
     length 1.15233   
     axis -90 -7.62852e-016 -20   XYZ
    dof rx
    limits (-90.0 20.0)
  end
  begin
     id 11 
     name lowerback
     direction 0.0287568 0.999577 -0.00434502   
     length 2.15243   
     axis 0 0 0   XYZ
    dof rx ry rz
    limits (-20.0 45.0)
           (-30.0 30.0)
           (-30.0 30.0)
  end
  begin
     id 12 
     name upperback
     direction 0.0294009 0.99956 0.00404628   
     length 2.15427   
     axis 0 0 0   XYZ
    dof rx ry rz
    limits (-20.0 45.0)
           (-30.0 30.0)
           (-30.0 30.0)
  end
  begin
     id 13 
     name thorax
     direction 0.0151014 0.999868 0.0059419   
     length 2.14898   
     axis 0 0 0   XYZ
    dof rx ry rz
    limits (-20.0 45.0)
           (-30.0 30.0)
           (-30.0 30.0)
  end
  begin
     id 14 
     name lowerneck
     direction -0.0249197 0.989906 0.139515   
     length 1.6861   
     axis 0 0 0   XYZ
    dof rx ry rz
    limits (-20.0 45.0)
           (-30.0 30.0)
           (-30.0 30.0)
  end
  begin
     id 15 
     name upperneck
     direction 0.0438463 0.988795 -0.142693   
     length 1.71276   
     axis 0 0 0   XYZ
    dof rx ry rz
    limits (-20.0 45.0)
           (-30.0 30.0)
           (-30.0 30.0)
  end
  begin
     id 16
     name head
     direction 0.0148499 0.997845 -0.0639186  
     length 1.7209  
     axis 0 0 0   XYZ
    dof rx ry rz
    limits (-20.0 45.0)
           (-30.0 30.0)
           (-30.0 30.0)
  end
  begin
     id 17 
     name lclavicle
     direction 0.940298 0.323464 -0.105876  
     length 3.9048  
     axis 0 0 0   XYZ
    dof ry rz
    limits (-20.0 10.0)
           (0.0 20.0)
  end
  begin
     id 18 
     name lhumerus
     direction 1 -4.48954e-011 -4.9675e-028   
     length 4.6851   
     axis 180 -30 -90   XYZ
    dof rx ry rz
    limits (-60.0 90.0)
           (-90.0 90.0)
           (-90.0 90.0)
  end
  begin
     id 19
     name lradius
     direction 1 -4.48992e-011 -1.03359e-026   
     length 3.39626   
     axis 180 -30 -90   XYZ
    dof rx
    limits (-10.0 170.0)
  end
  begin
     id 20
     name lwrist
     direction 1 -4.48906e-011 -1.67336e-026   
     length 1.69813   
     axis 9.90442e-015 90 90   XYZ
    dof ry
    limits (-180.0 0.0)
 end
  begin
     id 21 
     name lhand
     direction 1 -4.49006e-011 -3.34673e-026   
     length 0.486078   
     axis 2.1355e-014 90 90   XYZ
    dof rx rz
    limits (-90.0 90.0)
           (-45.0 45.0)
  end
  begin
     id 22 
     name lfingers
     direction 1 -4.48992e-011 -6.69345e-026   
     length 0.391889   
     axis 4.27099e-014 90 90   XYZ
    dof rx
    limits (0.0 90.0)
  end
  begin
     id 23
     name lthumb
     direction 0.707107 -6.34926e-011 0.707107   
     length 0.562676   
     axis -90 45 2.85299e-015   XYZ
    dof rx rz
    limits (-45.0 45.0)
           (-45.0 45.0)
  end
  begin
     id 24 
     name rclavicle
     direction -0.882459 0.414895 -0.221648   
     length 3.44646  
     axis 0 0 0   XYZ 
    dof ry rz
    limits (-10.0 20.0)
           (-20.0 0.0)
  end
  begin
     id 25 
     name rhumerus
     direction -1 -4.48962e-011 -2.37984e-027  
     length 5.55576   
     axis 180 30 90   XYZ
    dof rx ry rz
    limits (-90.0 60.0)
           (-90.0 90.0)
           (-90.0 90.0)
  end
  begin
     id 26 
     name rradius
     direction -1 -4.48982e-011 -6.86791e-027   
     length 3.32774   
     axis 180 30 90   XYZ
    dof rx
    limits (-10.0 170.0)
  end
  begin
     id 27 
     name rwrist
     direction -1 -4.48961e-011 -1.67336e-026   
     length 1.66387   
     axis 9.90442e-015 -90 -90   XYZ
    dof ry
    limits (-180.0 0.0)
  end
  begin
     id 28
     name rhand
     direction -1 -4.4897e-011 -3.34673e-026   
     length 0.507628   
     axis 2.1355e-014 -90 -90   XYZ
    dof rx rz
    limits (-90.0 90.0)
           (-45.0 45.0)
  end
  begin
     id 29
     name rfingers
     direction -1 -4.48854e-011 -6.69345e-026   
     length 0.409263   
     axis 4.27099e-014 -90 -90   XYZ
    dof rx
    limits (0.0 90.0)
  end
  begin
     id 30
     name rthumb
     direction -0.707107 -6.34913e-011 0.707107   
     length 0.587622   
     axis -90 -45 -2.85299e-015   XYZ
    dof rx rz
    limits (-45.0 45.0)
           (-45.0 45.0)
  end
:hierarchy
  begin
    root lhipjoint rhipjoint lowerback
    lhipjoint lfemur
    lfemur ltibia
    ltibia lfoot
    lfoot ltoes
    rhipjoint rfemur
    rfemur rtibia
    rtibia rfoot
    rfoot rtoes
    lowerback upperback
    upperback thorax
    thorax lowerneck lclavicle rclavicle
    lowerneck upperneck
    upperneck head
    lclavicle lhumerus
    lhumerus lradius
    lradius lwrist
    lwrist lhand lthumb
    lhand lfingers
    rclavicle rhumerus
    rhumerus rradius
    rradius rwrist
    rwrist rhand rthumb
    rhand rfingers
  end

#!OML:ASF E:\motion texture\Top Level 1\Subject 1\Session 1\male.ASF
:FULLY-SPECIFIED
:DEGREES
147
root 42.993 17.7336 5.22398 107.211 -83.5006 -96.9005
lowerback -1.60697 0.970894 8.51864
upperback 0.947064 0.880327 4.1295
thorax 1.96076 0.463168 -0.469893
lowerneck -9.3094 -8.38296 -7.7403
upperneck 12.1913 -11.6331 9.06282
head 6.21206 -5.42937 3.09419
rclavicle 3.77691e-015 -1.43125e-014
rhumerus -24.6072 -9.35217 -76.3602
rradius 23.3603
rwrist 13.0485
rhand -11.7723 -23.8028
rfingers 7.12502
rthumb 14.2764 -53.292
lclavicle 3.77691e-015 -1.43125e-014
lhumerus -31.7828 14.0028 84.7143
lradius 27.6066
lwrist -28.6336
lhand -12.2391 17.8523
lfingers 7.12502
lthumb 13.8266 47.3727
rfemur -4.47076 2.73977 31.4185
rtibia 14.0426
rfoot -14.1632 -8.92839
rtoes 12.2643
lfemur -34.4323 2.65743 -7.90127
ltibia 39.8754
lfoot -9.40354 6.30501
ltoes -16.2117
148
root 42.9403 17.7314 5.22732 107.07 -83.5012 -96.6609
lowerback -1.51761 0.984925 8.5289
upperback 0.93155 0.908022 4.17695
thorax 1.89577 0.47343 -0.427158
lowerneck -9.16436 -8.4456 -7.79646
upperneck 12.1827 -11.7294 9.11604
head 6.19961 -5.47971 3.11509
rclavicle 8.74653e-015 3.89618e-014
rhumerus -24.6026 -9.25002 -76.3042
rradius 23.384
rwrist 13.0041
rhand -11.7698 -23.82
rfingers 7.12502
rthumb 14.2789 -53.3091
lclavicle 8.74653e-015 3.89618e-014
lhumerus -32.001 14.2297 84.605
lradius 27.459
lwrist -28.8102
lhand -12.18 17.8133
lfingers 7.12502
lthumb 13.8835 47.3298
rfemur -4.3406 2.73934 31.4078
rtibia 13.9466
rfoot -14.2004 -8.95593
rtoes 12.0848
lfemur -34.6965 2.65296 -7.9033
ltibia 38.8334
lfoot -9.26021 6.44668
ltoes -16.2061
149
root 42.8863 17.7289 5.2311 106.987 -83.4955 -96.4758
lowerback -1.39253 0.997316 8.5311
upperback 0.888941 0.940255 4.23138
thorax 1.78244 0.483672 -0.373695
lowerneck -9.011 -8.50683 -7.85771
upperneck 12.2016 -11.8257 9.1613
head 6.19427 -5.53081 3.13436
rclavicle -5.76476e-015 -2.38542e-015
rhumerus -24.6337 -9.12605 -76.2407
rradius 23.4137
rwrist 12.9527
rhand -11.7655 -23.8444
rfingers 7.12502
rthumb 14.283 -53.3332
lclavicle -5.76476e-015 -2.38542e-015
lhumerus -32.2615 14.4785 84.4776
lradius 27.3006
lwrist -29.0037
lhand -12.1233 17.775
lfingers 7.12502
lthumb 13.9382 47.2878
rfemur -4.21291 2.73755 31.4003
rtibia 13.8554
rfoot -14.2377 -8.97629
rtoes 11.8938
lfemur -34.9392 2.64349 -7.89628
ltibia 37.7376
lfoot -9.10398 6.58425
ltoes -16.2054
150
root 42.8308 17.7259 5.2354 106.937 -83.4851 -96.3188
lowerback -1.28197 1.0104 8.53383
upperback 0.852537 0.971138 4.28579
thorax 1.68365 0.493842 -0.32034
lowerneck -8.86418 -8.56848 -7.91679
upperneck 12.2229 -11.9238 9.21196
head 6.19128 -5.58214 3.15456
rclavicle -2.5842e-015 3.18055e-014
rhumerus -24.6498 -9.00436 -76.1843
rradius 23.4428
rwrist 12.9006
rhand -11.7621 -23.8603
rfingers 7.12502
rthumb 14.2862 -53.3488
lclavicle -2.5842e-015 3.18055e-014
lhumerus -32.5089 14.7447 84.3381
lradius 27.1271
lwrist -29.2101
lhand -12.0657 17.7413
lfingers 7.12502
lthumb 13.9936 47.2503
rfemur -4.08738 2.73102 31.3944
rtibia 13.7694
rfoot -14.2767 -8.98992
rtoes 11.6892
lfemur -35.163 2.62327 -7.88083
ltibia 36.5995
lfoot -8.94265 6.72031
ltoes -16.2241
151
root 42.7739 17.7225 5.24018 106.922 -83.4681 -96.1931
lowerback -1.17938 1.02319 8.53783
upperback 0.817442 1.00052 4.34126
thorax 1.59058 0.503465 -0.266561
lowerneck -8.71758 -8.62948 -7.97542
upperneck 12.2498 -12.0228 9.26737
head 6.19057 -5.63356 3.17606
rclavicle -4.37326e-015 -1.27222e-014
rhumerus -24.6596 -8.88214 -76.1331
rradius 23.4715
rwrist 12.852
rhand -11.7596 -23.873
rfingers 7.12502
rthumb 14.2886 -53.3614
lclavicle -4.37326e-015 -1.27222e-014
lhumerus -32.7521 15.0323 84.183
lradius 26.9393
lwrist -29.4333
lhand -12.0063 17.7065
lfingers 7.12502
lthumb 14.0509 47.2116
rfemur -3.96432 2.72183 31.3925
rtibia 13.6906
rfoot -14.3174 -8.99765
rtoes 11.473
lfemur -35.3689 2.59484 -7.85525
ltibia 35.4282
lfoot -8.77518 6.85531
ltoes -16.2532
152
root 42.7156 17.7187 5.24544 106.952 -83.4445 -96.1097
lowerback -1.08541 1.03692 8.54256
upperback 0.786624 1.02969 4.39743
thorax 1.50678 0.513348 -0.21233
lowerneck -8.58055 -8.69107 -8.03363
upperneck 12.2849 -12.1242 9.33022
head 6.19487 -5.68536 3.19909
rclavicle -1.0138e-014 -7.31528e-014
rhumerus -24.6568 -8.76083 -76.088
rradius 23.5012
rwrist 12.7997
rhand -11.7539 -23.8969
rfingers 7.12502
rthumb 14.2941 -53.3849
lclavicle -1.0138e-014 -7.31528e-014
lhumerus -32.9846 15.3383 84.0151
lradius 26.7384
lwrist -29.6722
lhand -11.9459 17.6762
lfingers 7.12502
lthumb 14.1091 47.1772
rfemur -3.84324 2.7081 31.3939
rtibia 13.6186
rfoot -14.3594 -8.9964
rtoes 11.2434
lfemur -35.5582 2.55767 -7.81897
ltibia 34.2335
lfoot -8.60301 6.98889
ltoes -16.265
153
root 42.6559 17.7143 5.25119 107.028 -83.4143 -96.0706
lowerback -0.994199 1.05067 8.54652
upperback 0.754222 1.05869 4.45527
thorax 1.42279 0.523077 -0.156001
lowerneck -8.43936 -8.75201 -8.09161
upperneck 12.3271 -12.2269 9.39633
head 6.20114 -5.73764 3.22312
rclavicle -1.15295e-014 -2.3059e-014
rhumerus -24.6531 -8.63632 -76.0466
rradius 23.5337
rwrist 12.7456
rhand -11.7453 -23.9216
rfingers 7.12502
rthumb 14.3025 -53.409
lclavicle -1.15295e-014 -2.3059e-014
lhumerus -33.219 15.6632 83.8321
lradius 26.5278
lwrist -29.9248
lhand -11.8857 17.6495
lfingers 7.12502
lthumb 14.1672 47.1465
rfemur -3.72472 2.69085 31.3985
rtibia 13.5563
rfoot -14.404 -8.98815
rtoes 10.9969
lfemur -35.7318 2.51143 -7.77151
ltibia 33.0254
lfoot -8.42824 7.12154
ltoes -16.2711
154
root 42.5946 17.7095 5.25744 107.144 -83.3769 -96.0688
lowerback -0.910596 1.06518 8.55398
upperback 0.726855 1.0873 4.5123
thorax 1.34835 0.533045 -0.102283
lowerneck -8.3069 -8.81383 -8.14944
upperneck 12.3802 -12.3333 9.47225
head 6.21342 -5.79073 3.24933
rclavicle -1.13307e-014 -7.31528e-014
rhumerus -24.6369 -8.51594 -76.0126
rradius 23.5667
rwrist 12.6926
rhand -11.7369 -23.9481
rfingers 7.12502
rthumb 14.3105 -53.435
lclavicle -1.13307e-014 -7.31528e-014
lhumerus -33.4425 16.0028 83.6352
lradius 26.3076
lwrist -30.19
lhand -11.8239 17.6241
lfingers 7.12502
lthumb 14.2267 47.1168
rfemur -3.60706 2.66836 31.4069
rtibia 13.5019
rfoot -14.4491 -8.97048
rtoes 10.7366
lfemur -35.8904 2.45446 -7.71163
ltibia 31.8127
lfoot -8.24762 7.25417
ltoes -16.2778
155
root 42.5318 17.7042 5.26421 107.291 -83.3323 -96.0972
lowerback -0.836167 1.07913 8.5638
upperback 0.701932 1.11378 4.56983
thorax 1.28149 0.542229 -0.04925
lowerneck -8.17238 -8.87583 -8.20374
upperneck 12.4396 -12.4419 9.54989
head 6.22758 -5.84475 3.27533
rclavicle 8.54774e-015 3.18055e-014
rhumerus -24.6155 -8.39396 -75.9846
rradius 23.6028
rwrist 12.6382
rhand -11.7262 -23.9715
rfingers 7.12502
rthumb 14.3208 -53.4576
lclavicle 8.54774e-015 3.18055e-014
lhumerus -33.6623 16.3602 83.4227
lradius 26.0789
lwrist -30.4682
lhand -11.7636 17.5993
lfingers 7.12502
lthumb 14.2848 47.088
rfemur -3.4914 2.64114 31.4192
rtibia 13.4588
rfoot -14.497 -8.94487
rtoes 10.4586
lfemur -36.0359 2.38578 -7.63896
ltibia 30.6052
lfoot -8.06823 7.38713
ltoes -16.2845
156
root 42.4674 17.6983 5.27153 107.482 -83.281 -96.1694
lowerback -0.766806 1.09466 8.5776
upperback 0.683047 1.14123 4.62529
thorax 1.22391 0.552361 -0.000377899
lowerneck -8.05414 -8.94102 -8.2531
upperneck 12.5126 -12.557 9.63176
head 6.24953 -5.90069 3.30034
rclavicle -7.55382e-015 -3.18055e-015
rhumerus -24.5798 -8.28183 -75.9639
rradius 23.6392
rwrist 12.586
rhand -11.7147 -23.9992
rfingers 7.12502
rthumb 14.3319 -53.4846
lclavicle -7.55382e-015 -3.18055e-015
lhumerus -33.8674 16.729 83.1976
lradius 25.8415
lwrist -30.7582
lhand -11.7036 17.5717
lfingers 7.12502
lthumb 14.3426 47.0563
rfemur -3.37597 2.60984 31.4343
rtibia 13.4258
rfoot -14.5464 -8.91055
rtoes 10.1614
lfemur -36.1675 2.30505 -7.554
ltibia 29.4109
lfoot -7.88534 7.52323
ltoes -16.2839
157
root 42.4014 17.692 5.27936 107.711 -83.2229 -96.2791
lowerback -0.703622 1.1099 8.59385
upperback 0.668153 1.16717 4.68017
thorax 1.1739 0.562057 0.0466478
lowerneck -7.94079 -9.00628 -8.30343
upperneck 12.5974 -12.6752 9.72385
head 6.27725 -5.9573 3.32803
rclavicle 1.07344e-014 -7.15625e-015
rhumerus -24.5366 -8.1693 -75.9501
rradius 23.6787
rwrist 12.5333
rhand -11.7043 -24.0226
rfingers 7.12502
rthumb 14.342 -53.5072
lclavicle 1.07344e-014 -7.15625e-015
lhumerus -34.0647 17.112 82.9587
lradius 25.5979
lwrist -31.0591
lhand -11.6441 17.5486
lfingers 7.12502
lthumb 14.4 47.0291
rfemur -3.26143 2.57544 31.4526
rtibia 13.4057
rfoot -14.5986 -8.86915
rtoes 9.84485
lfemur -36.2858 2.21139 -7.45585
ltibia 28.2391
lfoot -7.70821 7.66175
ltoes -16.2684
